<?xml version="1.0" encoding="utf-8"?>
<!DOCTYPE svg PUBLIC "-//W3C//DTD SVG 1.1//EN" "http://www.w3.org/Graphics/SVG/1.1/DTD/svg11.dtd">
<svg version="1.1" xmlns="http://www.w3.org/2000/svg" xmlns:xlink="http://www.w3.org/1999/xlink" x="0px" y="0px" viewBox="0 0 1000 1000" enable-background="new 0 0 1000 1000" xml:space="preserve">
    <g fill="#ced4da">
        <g transform="translate(0.000000,511.000000) scale(0.100000,-0.100000)">
            <path d="M1851,3217.4c-30.6-13.4-76.6-45.9-97.6-70.8c-23-24.9-400.1-685.3-840.4-1468.2C30.5,110.5,51.6,156.4,141.5-0.5c38.3-63.2,107.2-114.9,417.3-304.4c300.5-183.8,390.5-229.7,459.4-235.4c147.4-13.4,231.6,55.5,369.5,300.5c42.1,76.6,40.2,76.6,258.4-187.6l162.7-199.1l-32.5-51.7c-70.8-109.1-95.7-185.7-95.7-308.2c-1.9-224,132.1-430.7,340.7-528.4c53.6-24.9,114.9-45.9,137.8-45.9c34.5,0,42.1-15.3,51.7-93.8c17.2-151.2,84.2-279.5,197.2-382.9c114.9-105.3,235.5-155.1,373.3-155.1h91.9l45.9-101.4c59.3-130.2,164.6-235.5,294.8-294.8c82.3-38.3,126.3-45.9,237.4-42.1l137.8,3.8l38.3-74.6c51.7-105.3,160.8-212.5,271.8-271.8c78.5-42.1,122.5-51.7,239.3-51.7c201,0,291,55.5,453.7,275.7c3.8,3.8,93.8-19.2,201-51.7c344.6-105.3,469-128.3,704.5-128.3c201,0,229.7,3.8,333.1,53.6c137.8,63.2,250.8,153.1,338.8,268c63.2,84.2,67,86.1,199.1,97.6c260.3,23,425,155.1,497.7,400.1c32.5,107.2,51.7,128.3,128.3,128.3c109.1,0,260.3,74.6,348.4,174.2c78.5,86.1,145.5,227.8,145.5,304.4c0,24.9,24.9,36.4,109.1,45.9c135.9,15.3,264.2,72.8,346.5,151.2c147.4,139.7,210.6,380.9,149.3,560.9c-17.2,49.8-30.6,91.9-30.6,93.8c0,1.9,57.4,47.9,130.2,101.4c70.8,53.6,183.8,153.1,252.7,222.1c67,68.9,130.2,126.4,135.9,126.4c7.7,0,44-55.5,82.3-122.5c91.9-162.7,160.8-212.5,298.6-212.5c101.5,0,120.6,9.6,478.6,229.7c308.2,191.4,379,243.1,417.3,306.3c90,157,111,111-771.4,1678.8c-440.3,782.9-817.4,1443.4-840.4,1468.2c-49.8,55.5-143.6,97.6-222.1,97.6c-74.7,0-109.1-17.2-513-266.1c-375.2-229.7-413.5-269.9-413.5-432.6c0-72.7,15.3-122.5,61.3-202.9l61.3-109.1l-84.2-21.1c-155-38.3-323.5-24.9-668.1,55.5c-499.6,114.9-740.8,141.7-1150.5,126.3c-585.8-23-1006.9-86.1-1238.5-189.5c-95.7-42.1-166.5-103.4-262.3-222.1l-36.4-45.9l-291,47.9c-302.5,51.7-361.8,72.7-581.9,214.4l-111,70.8l45.9,80.4c26.8,44,53.6,107.2,59.3,141.7c19.1,84.2-17.2,204.8-80.4,266.1c-28.7,26.8-214.4,149.3-411.6,268C2025.2,3257.6,1979.3,3274.8,1851,3217.4z M2295.1,2735c162.7-101.4,292.9-193.3,289-206.7c-3.8-13.4-354.1-641.3-777.2-1395.5L1033.6-237.9l-149.3,93.8C800.1-92.4,660.3-4.4,570.3,51.1c-90,53.6-160.8,103.4-157,109.1c111,216.3,1556.3,2758.5,1567.8,2758.5C1990.7,2918.7,2132.4,2836.4,2295.1,2735z M8805.6,1551.9C9228.7,799.6,9577,175.6,9579,164.1c3.8-11.5-134-107.2-304.4-210.6L8964.5-236l-777.2,1380.2c-426.9,760-777.2,1387.9-779.1,1395.5c-5.7,15.3,576.2,377.1,608.7,379C8028.4,2918.7,8382.5,2304.2,8805.6,1551.9z M5880.6,2068.8c111-15.3,358-63.2,547.5-105.3c405.8-91.9,572.4-99.6,790.6-40.2c116.8,32.5,145.5,36.4,164.6,15.3c13.4-13.4,252.7-436.5,534.1-938l513-913.1l-185.7-178c-101.5-97.6-233.5-210.6-291-250.8c-93.8-63.2-111-68.9-137.8-44C7574.7-174.8,6738.2,437.8,6301.7,721.1C5884.4,993,5023,1463.9,4942.6,1463.9c-61.3,0-461.3-126.3-499.6-157c-15.3-13.4-65.1-72.7-107.2-130.2c-243.1-321.6-560.9-516.9-842.3-516.9h-107.2l9.6,84.2c11.5,99.6,70.8,199.1,413.5,691.1c333.1,478.6,335,480.5,440.3,514.9C4590.3,2063,5455.6,2124.3,5880.6,2068.8z M2861.7,1869.7c151.2-93.8,294.8-145.5,492-174.2c78.5-13.4,162.7-26.8,185.7-32.5c38.3-7.7,28.7-28.7-135.9-271.8c-99.6-143.6-208.7-317.8-243.1-384.8c-59.3-112.9-65.1-137.8-65.1-291c0-191.4,24.9-243.1,155.1-319.7c67-40.2,93.8-42.1,266.1-36.4c134,5.8,229.7,19.1,315.9,49.8c243.1,84.2,495.8,269.9,691.1,509.2c109.1,132.1,124.4,143.6,256.5,187.6l139.7,47.9l323.5-172.3c727.4-388.6,1317-775.3,2061.7-1353.4c346.5-269.9,482.4-396.3,499.6-467.1c45.9-185.7-124.4-352.2-319.7-310.1c-30.6,7.6-384.8,210.6-786.8,451.8c-773.4,463.3-813.6,480.5-894,400.1c-47.9-47.9-51.7-160.8-3.8-204.8c17.2-19.1,336.9-214.4,706.4-436.5l673.8-402l1.9-84.2c0-95.7-51.7-195.3-120.6-225.9c-24.9-11.5-91.9-26.8-149.3-34.5l-103.4-11.5l-629.8,363.7c-426.9,248.9-647,365.6-685.3,365.6c-70.8,0-149.3-76.6-149.3-143.6c0-30.6,21-72.7,53.6-103.4c28.7-26.8,304.4-197.2,614.5-375.2c308.2-178,566.6-335,570.5-348.4c17.2-44-53.6-197.2-105.3-231.6c-36.4-23-88.1-32.5-185.7-30.6c-132.1,0-139.7,3.8-647,252.7c-283.3,139.7-537.9,252.7-566.6,252.7c-109.1,0-183.8-158.9-114.9-241.2c15.3-17.2,237.4-135.9,495.8-260.3l469-229.7l-91.9-82.3c-51.7-47.9-124.4-93.8-162.7-105.3c-151.2-42.1-394.4-11.5-727.4,88.1l-157,47.9l44,61.3c65.1,86.1,90,172.3,90,308.2c0,247-174.2,474.8-415.4,547.5c-67,21-74.6,28.7-67,76.6c13.4,90-34.5,264.2-97.6,358c-78.5,116.8-197.2,206.7-327.3,246.9l-101.5,32.5l-11.5,99.6c-28.7,271.8-252.7,482.4-532.2,503.4c-114.9,7.7-143.6,1.9-237.4-44c-72.7-34.5-130.2-82.3-178-145.5c-38.3-49.8-74.7-91.9-80.4-91.9c-5.7,0-32.5,32.5-61.3,70.8c-59.3,84.2-172.3,168.4-277.6,206.7c-158.9,55.5-382.9,15.3-495.8-90l-42.1-38.3l-120.6,149.3c-67,82.3-158.9,189.5-204.8,239.3c-55.5,59.3-80.4,101.4-72.7,120.6c9.6,28.7,932.3,1673.1,1010.7,1805.2c36.4,57.4,42.1,61.3,80.4,36.4C2712.4,1959.7,2789,1911.8,2861.7,1869.7z M2488.5-565.3c116.8-72.7,172.3-225.9,114.9-331.2c-51.7-101.5-252.7-342.7-296.7-359.9c-164.6-61.2-377.1,166.6-312,336.9c19.1,51.7,160.8,246.9,245,340.7C2298.9-515.5,2396.6-509.8,2488.5-565.3z M3464.7-584.4c84.2-51.7,137.8-145.5,137.8-241.2c0-59.3-13.4-93.8-65.1-153.1c-34.5-40.2-189.5-246.9-342.7-457.5c-153.1-210.6-292.9-398.2-308.2-415.4c-40.2-45.9-158.9-44-235.5,3.8c-82.3,49.8-147.4,178-134,260.3c11.5,65.1,593.4,882.5,704.5,989.7C3288.6-534.6,3374.8-530.8,3464.7-584.4z M3985.4-1200.8c97.6-67,143.6-141.7,143.6-231.6c0-74.7-24.9-114.9-292.9-476.7c-158.9-216.3-304.4-400.1-321.6-405.8c-109.1-42.1-252.7,23-315.9,141.7c-72.7,134-72.7,132.1,327.3,675.7c120.6,162.7,237.4,306.3,258.4,317.8C3847.6-1149.1,3918.4-1156.8,3985.4-1200.8z M4532.9-1932.1c76.6-74.6,84.2-91.9,84.2-176.1c0-88-11.5-109.1-181.9-338.8c-99.6-134-202.9-252.7-227.8-264.2c-157-72.8-375.2,134-329.3,312c9.6,42.1,277.6,417.3,361.8,509.2c28.7,30.6,61.3,42.1,124.4,42.1C4439.1-1847.8,4460.2-1857.4,4532.9-1932.1z"/>
        </g>
    </g>
</svg>