<?xml version="1.0" encoding="utf-8"?>
<!DOCTYPE svg PUBLIC "-//W3C//DTD SVG 1.1//EN" "http://www.w3.org/Graphics/SVG/1.1/DTD/svg11.dtd">
<svg version="1.1" xmlns="http://www.w3.org/2000/svg" xmlns:xlink="http://www.w3.org/1999/xlink" x="0px" y="0px" viewBox="0 0 1000 1000" enable-background="new 0 0 1000 1000" xml:space="preserve">
    <g fill="#ced4da">
        <g transform="translate(0.000000,511.000000) scale(0.100000,-0.100000)">
            <path d="M5845.7,2399.9L3807,361.2l-166.8,80.6c-193.7,95.9-389.3,164.9-615.6,212.9c-222.5,47.9-711.5,47.9-935.9,0C1087.5,441.8,349.1-296.6,136.2-1297.7c-47.9-224.4-47.9-713.4-1.9-935.9c109.3-515.9,345.2-945.5,711.5-1300.3c312.6-301.1,682.8-512.1,1098.9-621.4c216.7-57.5,243.6-61.4,600.3-61.4c318.4,0,400.8,5.8,552.3,40.3c851.5,201.4,1536.2,824.7,1802.8,1645.5c155.4,475.6,159.2,1018.4,11.5,1490.2c-26.9,88.2-74.8,214.8-105.5,283.8l-57.5,122.7l983.9,983.9l983.9,983.8l416.2-416.2l418.1-418.1l483.3,485.2l485.2,483.3l-418.1,418.1l-416.2,416.2l230.1,230.1l230.1,230.1l514-514l512.1-512.1l364.4,364.4l364.4,364.4l-995.4,981.9c-546.6,540.8-1001.1,985.8-1006.9,989.6C7892,4438.6,6967.6,3521.9,5845.7,2399.9z M2763.7-689.7c287.7-53.7,538.9-218.6,698.1-458.4c124.7-186,176.4-341.4,189.9-558.1c17.3-322.2-90.1-606.1-320.3-834.3C2669.7-3204,1542-2787.9,1461.4-1850c-44.1,502.5,303,999.2,797.8,1139.2C2453-657.1,2568-651.4,2763.7-689.7z"/>
        </g>
    </g>
</svg>