<?xml version="1.0" encoding="utf-8"?>
<!DOCTYPE svg PUBLIC "-//W3C//DTD SVG 1.1//EN" "http://www.w3.org/Graphics/SVG/1.1/DTD/svg11.dtd">
<svg version="1.1" xmlns="http://www.w3.org/2000/svg" xmlns:xlink="http://www.w3.org/1999/xlink" x="0px" y="0px" viewBox="0 0 1000 1000" enable-background="new 0 0 1000 1000" xml:space="preserve">
    <g fill="#ced4da">
        <g transform="translate(0.000000,511.000000) scale(0.100000,-0.100000)">
            <path d="M4679.8,4994.8c-375.3-52.5-793-212.6-1108.3-425.3c-205.1-140.1-532.9-467.8-673-673c-140.1-210.1-285.2-520.4-347.7-753c-77.6-285.2-102.6-595.4-102.6-1368.4v-708H2023c-445.3,0-547.9-20-585.4-112.6c-7.5-22.5-15-1098.2-15-2389.1c0-2234,2.5-2354.1,47.5-2499.2c125.1-405.3,480.3-728,900.6-818c247.7-52.6,5013.4-50,5263.6,2.5c320.2,67.6,627.9,292.7,800.5,587.9c145.1,250.2,142.6,197.6,142.6,2741.9c0,1283.4-7.5,2351.6-15,2374.1c-37.5,92.6-140.1,112.6-585.4,112.6h-425.3v695.5c0,380.3-12.5,800.5-25,930.6c-62.5,622.9-300.2,1130.8-735.5,1566.1c-340.2,337.7-725.5,557.9-1180.8,675.5C5340.2,5002.3,4924.9,5029.8,4679.8,4994.8z M5472.8,3931.5c437.8-140.1,800.5-485.3,965.6-923.1c90.1-240.2,112.6-485.3,112.6-1243.3v-698H5000h-1551v683c0,375.3,12.5,775.5,25,890.6c90.1,700.5,590.4,1225.8,1295.9,1353.4C4950,4026.6,5255.2,3999.1,5472.8,3931.5z M5277.7-654.1c232.7-122.6,375.3-390.3,332.7-627.9c-22.5-132.6-130.1-317.7-227.7-392.8l-82.5-62.5v-550.4v-552.9l-72.6-72.5c-65-65-90-72.5-227.6-72.5c-137.6,0-162.6,7.5-227.7,72.5l-72.5,72.5v552.9v550.4l-82.5,62.5c-97.6,75-205.1,260.2-227.7,392.8C4327-934.2,4634.7-584,5000-584C5110.1-584,5177.6-601.5,5277.7-654.1z"/>
        </g>
    </g>
</svg>