<?xml version="1.0" encoding="utf-8"?>
<!DOCTYPE svg PUBLIC "-//W3C//DTD SVG 1.1//EN" "http://www.w3.org/Graphics/SVG/1.1/DTD/svg11.dtd">
<svg version="1.1" xmlns="http://www.w3.org/2000/svg" xmlns:xlink="http://www.w3.org/1999/xlink" x="0px" y="0px" viewBox="0 0 1000 1000" enable-background="new 0 0 1000 1000" xml:space="preserve">
    <g>
        <g transform="translate(0.000000,511.000000) scale(0.100000,-0.100000)">
            <path fill="#6c757d" d="M4942.5,4883c-53.5-155.6-338-447.4-554.4-573.8c-321-189.7-736.8-330.7-1235.3-423.1c-379.3-70.5-1468.7-77.8-1884.5-9.7c-145.9,21.9-306.4,48.6-355,55.9c-70.5,9.7-99.7,2.4-141-38.9l-51.1-51.1V1242.8c0-2808.5-2.4-2755.1,131.3-3136.8c367.2-1052.9,1748.3-2074.2,3720.4-2747.7l430.4-148.3l398.8,133.8c535,177.5,938.6,342.8,1434.6,586c724.6,357.4,1174.5,663.8,1619.5,1104c418.2,413.4,617.6,719.8,756.3,1174.5l55.9,175.1l7.3,2728.3c7.3,2713.7,4.9,2730.7-43.8,2779.3c-58.4,58.4-70.5,58.4-457.1,7.3c-442.6-58.4-1541.7-60.8-1913.7,0c-695.4,109.4-1220.7,321-1544.1,617.6c-131.3,121.6-291.8,369.6-291.8,454.7C5025.2,5048.3,4986.3,5007,4942.5,4883z M5246.5,3394.8c666.2-347.7,1361.7-496,2424.3-517.9l637.1-14.6V744.4c0-2329.5,4.9-2259-148.3-2545.9C7811.8-2450.8,6732.2-3156,5285.4-3673.9l-272.3-97.3L4721.3-3669c-863.2,299.1-1775.1,797.6-2317.3,1262c-231,197-462,476.6-566.6,683.3c-148.3,294.2-143.5,226.1-143.5,2492.4V2838l615.2,14.6c372,7.3,717.3,29.2,877.8,53.5c590.9,87.5,1220.7,289.4,1597.6,510.6c99.7,58.4,187.2,107,194.5,107C4986.3,3526.1,5105.4,3467.8,5246.5,3394.8z"/>
            <path fill="#198754" d="M6690.9,1675.7c-48.6-12.2-442.6-384.2-1189-1116.1L4385.7-537.1l-500.9,496c-413.4,413.4-517.9,503.4-603,530.1c-279.6,80.2-552-194.5-469.3-476.6c24.3-80.3,162.9-231,800-870.5l770.8-773.3l1376.3,1352C6834.3,776,7145.6,1094.5,7177.2,1174.8c72.9,182.4-9.7,389.1-192.1,476.6C6875.7,1704.8,6807.6,1712.1,6690.9,1675.7z"/>
        </g>
    </g>
</svg>